<svg xmlns="http://www.w3.org/2000/svg" viewBox="0 0 38 38"><defs><style>.cls-1{fill:#fff;}</style></defs><title>r2m-white-logo</title><g id="Layer_2" data-name="Layer 2"><g id="Layer_1-2" data-name="Layer 1"><path class="cls-1" d="M4,26H0v8a4,4,0,0,0,4,4h8V34H4ZM4,4h8V0H4A4,4,0,0,0,0,4v8H4ZM34,0H26V4h8v8h4V4A4,4,0,0,0,34,0Zm0,34H26v4h8a4,4,0,0,0,4-4V26H34Z"/></g><g id="Layer_2-2" data-name="Layer 2"><rect class="cls-1" x="7.17" y="6.5" width="24.39" height="4"/><rect class="cls-1" x="7.17" y="13.5" width="23.17" height="4"/><rect class="cls-1" x="7.17" y="20.5" width="24.39" height="4"/><rect class="cls-1" x="7.17" y="27.5" width="19.7" height="4"/></g></g></svg>