<?xml version="1.0" encoding="utf-8"?>
<!-- Generator: Adobe Illustrator 23.0.2, SVG Export Plug-In . SVG Version: 6.00 Build 0)  -->
<svg version="1.1" xmlns="http://www.w3.org/2000/svg" xmlns:xlink="http://www.w3.org/1999/xlink" x="0px" y="0px"
	 viewBox="0 0 48 48" style="enable-background:new 0 0 48 48;" xml:space="preserve">
<g id="Layer_1">
	<path d="M9,31H5v8c0,2.2,1.8,4,4,4h8v-4H9V31z M9,9h8V5H9C6.8,5,5,6.8,5,9v8h4V9z M39,5h-8v4h8v8h4V9C43,6.8,41.2,5,39,5z M39,39
		h-8v4h8c2.2,0,4-1.8,4-4v-8h-4V39z"/>
</g>
<g id="Layer_2">
	<rect x="12.2" y="11.5" width="24.4" height="4"/>
	<rect x="12.2" y="18.5" width="23.2" height="4"/>
	<rect x="12.2" y="25.5" width="24.4" height="4"/>
	<rect x="12.2" y="32.5" width="19.7" height="4"/>
</g>
</svg>
